<svg width="519" height="100" viewBox="0 0 519 100" fill="none" xmlns="http://www.w3.org/2000/svg">
<path d="M8.568 79C8.008 79 7.532 78.804 7.14 78.412C6.748 78.02 6.552 77.544 6.552 76.984V22.3C6.552 21.684 6.72 21.18 7.056 20.788C7.448 20.396 7.952 20.2 8.568 20.2H15.372C16.436 20.2 17.276 20.732 17.892 21.796L34.104 51.868L50.316 21.796C50.932 20.732 51.772 20.2 52.836 20.2H59.556C60.172 20.2 60.676 20.396 61.068 20.788C61.46 21.18 61.656 21.684 61.656 22.3V76.984C61.656 77.6 61.46 78.104 61.068 78.496C60.676 78.832 60.172 79 59.556 79H52.332C51.772 79 51.296 78.804 50.904 78.412C50.512 78.02 50.316 77.544 50.316 76.984V40.864L38.64 63.04C38.024 64.272 37.1 64.888 35.868 64.888H32.34C31.164 64.888 30.212 64.272 29.484 63.04L17.808 40.864V76.984C17.808 77.544 17.612 78.02 17.22 78.412C16.884 78.804 16.408 79 15.792 79H8.568Z" fill="white"/>
<path d="M170.192 79C169.744 79 169.324 78.832 168.932 78.496C168.596 78.16 168.428 77.74 168.428 77.236C168.428 77.012 168.54 76.676 168.764 76.228L187.496 49.012L169.94 22.972C169.716 22.636 169.604 22.3 169.604 21.964C169.604 21.46 169.772 21.04 170.108 20.704C170.5 20.368 170.92 20.2 171.368 20.2H180.188C181.196 20.2 182.064 20.732 182.792 21.796L195.056 39.772L207.404 21.796C208.02 20.732 208.888 20.2 210.008 20.2H218.324C218.772 20.2 219.164 20.368 219.5 20.704C219.892 21.04 220.088 21.46 220.088 21.964C220.088 22.188 219.976 22.524 219.752 22.972L202.196 49.012L221.012 76.228C221.18 76.564 221.264 76.9 221.264 77.236C221.264 77.74 221.096 78.16 220.76 78.496C220.424 78.832 220.004 79 219.5 79H210.512C209.504 79 208.636 78.496 207.908 77.488L194.636 58.588L181.532 77.488C180.804 78.496 179.936 79 178.928 79H170.192Z" fill="white"/>
<path d="M243.267 79C242.707 79 242.231 78.804 241.839 78.412C241.447 78.02 241.251 77.544 241.251 76.984V22.3C241.251 21.684 241.419 21.18 241.755 20.788C242.147 20.396 242.651 20.2 243.267 20.2H279.807C280.423 20.2 280.927 20.396 281.319 20.788C281.711 21.18 281.907 21.684 281.907 22.3V28.348C281.907 28.908 281.711 29.384 281.319 29.776C280.927 30.168 280.423 30.364 279.807 30.364H252.927V46.156H278.127C278.743 46.156 279.247 46.352 279.639 46.744C280.031 47.136 280.227 47.612 280.227 48.172V54.22C280.227 54.78 280.031 55.256 279.639 55.648C279.247 56.04 278.743 56.236 278.127 56.236H252.927V76.984C252.927 77.544 252.731 78.02 252.339 78.412C251.947 78.804 251.443 79 250.827 79H243.267Z" fill="white"/>
<path d="M305.798 79C305.238 79 304.762 78.804 304.37 78.412C303.978 78.02 303.782 77.544 303.782 76.984V22.216C303.782 21.6 303.978 21.124 304.37 20.788C304.762 20.396 305.238 20.2 305.798 20.2H313.862C314.478 20.2 314.954 20.396 315.29 20.788C315.682 21.124 315.878 21.6 315.878 22.216V76.984C315.878 77.544 315.682 78.02 315.29 78.412C314.954 78.804 314.478 79 313.862 79H305.798Z" fill="white"/>
<path d="M342.982 79C342.422 79 341.946 78.804 341.554 78.412C341.162 78.02 340.966 77.544 340.966 76.984V22.3C340.966 21.684 341.134 21.18 341.47 20.788C341.862 20.396 342.366 20.2 342.982 20.2H380.026C380.642 20.2 381.146 20.396 381.538 20.788C381.93 21.18 382.126 21.684 382.126 22.3V27.928C382.126 28.544 381.93 29.048 381.538 29.44C381.146 29.776 380.642 29.944 380.026 29.944H352.474V44.644H378.178C378.794 44.644 379.298 44.84 379.69 45.232C380.082 45.624 380.278 46.128 380.278 46.744V52.036C380.278 52.652 380.082 53.156 379.69 53.548C379.298 53.884 378.794 54.052 378.178 54.052H352.474V69.256H380.698C381.314 69.256 381.818 69.452 382.21 69.844C382.602 70.18 382.798 70.656 382.798 71.272V76.984C382.798 77.6 382.602 78.104 382.21 78.496C381.818 78.832 381.314 79 380.698 79H342.982Z" fill="white"/>
<path d="M407.318 79C406.758 79 406.282 78.804 405.89 78.412C405.498 78.02 405.302 77.544 405.302 76.984V22.216C405.302 21.6 405.498 21.124 405.89 20.788C406.282 20.396 406.758 20.2 407.318 20.2H415.214C415.83 20.2 416.306 20.396 416.642 20.788C417.034 21.124 417.23 21.6 417.23 22.216V68.92H443.858C444.474 68.92 444.978 69.116 445.37 69.508C445.762 69.9 445.958 70.376 445.958 70.936V76.984C445.958 77.544 445.762 78.02 445.37 78.412C444.978 78.804 444.474 79 443.858 79H407.318Z" fill="white"/>
<path d="M468.127 79C467.567 79 467.091 78.804 466.699 78.412C466.307 78.02 466.111 77.544 466.111 76.984V22.3C466.111 21.684 466.279 21.18 466.615 20.788C467.007 20.396 467.511 20.2 468.127 20.2H488.623C505.143 20.2 513.571 27.816 513.907 43.048C514.019 46.296 514.075 48.48 514.075 49.6C514.075 50.664 514.019 52.82 513.907 56.068C513.683 63.908 511.555 69.704 507.523 73.456C503.547 77.152 497.387 79 489.043 79H468.127ZM488.623 69.256C493.271 69.256 496.631 68.22 498.703 66.148C500.775 64.076 501.867 60.632 501.979 55.816C502.091 52.456 502.147 50.356 502.147 49.516C502.147 48.62 502.091 46.548 501.979 43.3C501.867 38.708 500.719 35.348 498.535 33.22C496.351 31.036 492.907 29.944 488.203 29.944H477.955V69.256H488.623Z" fill="white"/>
<path fill-rule="evenodd" clip-rule="evenodd" d="M156.077 33.2991C156.077 33.2991 152.897 27.4266 153.386 23.2668C152.871 23.4385 152.476 23.7306 152.033 24.0586L152.033 24.0588C151.845 24.1983 151.647 24.3443 151.428 24.4903H150.939C150.939 24.4903 151.184 22.2881 153.386 20.5752H153.631L153.875 19.5965L149.471 16.6602C144.822 9.56416 136.747 4.18098 128.183 2.71283C127.938 2.71283 127.449 2.71283 127.204 2.46814C126.837 2.46814 126.531 2.40697 126.225 2.3458C125.919 2.28462 125.614 2.22345 125.246 2.22345C126.225 2.46814 126.959 2.71283 127.938 3.20221C131.364 4.42567 134.3 6.38319 136.992 8.83009C137.309 9.14776 137.653 9.46542 138.005 9.79145C138.739 10.47 139.512 11.1847 140.173 12.0111C139.194 11.277 138.46 10.7876 137.481 10.2982C136.258 9.80885 134.789 9.31947 133.321 8.83009C134.055 9.56416 135.034 11.0323 135.523 12.2558C130.874 6.87257 124.023 2.95752 116.927 1.73407C115.948 1.24469 114.725 1 113.746 1C113.868 1 114.052 1.06117 114.235 1.12235C114.419 1.18352 114.602 1.24469 114.725 1.24469C114.969 1.36704 115.214 1.42821 115.459 1.48938C115.704 1.55055 115.948 1.61173 116.193 1.73407C121.576 3.69159 126.225 7.11726 129.406 11.5217C127.204 9.31947 125.002 7.85133 122.31 6.87257H121.087C97.8412 6.87257 79 25.7137 79 48.9593C79 54.8319 80.2235 60.2151 82.4257 65.3536C82.4257 64.8915 82.3711 64.4294 82.3135 63.9415C82.2492 63.396 82.181 62.8184 82.181 62.1726C82.181 59.9704 82.4257 57.7682 82.6704 55.8106C84.8726 70.4921 95.3943 83.4607 110.81 87.6204C115.948 89.0885 121.087 89.3332 126.225 88.5992C128.183 88.3545 129.896 88.1098 131.853 87.3757C132.098 87.2534 132.343 87.1922 132.587 87.131C132.832 87.0698 133.077 87.0087 133.321 86.8863C129.896 87.131 126.47 86.6416 123.534 85.4182C123.411 85.4182 123.228 85.357 123.044 85.2958C122.861 85.2347 122.677 85.1735 122.555 85.1735H127.449C131.119 84.6841 134.789 83.4607 137.97 81.7478C140.907 80.035 143.598 77.8328 145.8 74.8965C145.923 74.7742 145.984 74.6518 146.045 74.5295C146.106 74.4071 146.168 74.2848 146.29 74.1624C146.535 73.673 146.779 73.4284 147.269 72.939C145.8 74.1624 144.088 75.1412 142.375 76.1199L142.375 76.1199C142.13 76.3646 141.641 76.6093 141.396 76.6093C143.354 74.8965 145.311 72.6943 146.535 70.2474C148.981 66.0876 150.45 61.4385 150.45 56.3V55.0766C149.716 57.2788 148.981 59.481 147.758 61.4385L147.792 61.3189C148.359 59.3486 150.839 50.7283 146.29 42.108V42.3527C146.29 42.3782 146.29 42.401 146.29 42.4218C146.316 42.5026 146.341 42.5836 146.366 42.6648C146.402 42.7093 146.455 42.7629 146.535 42.8421C147.513 46.2677 148.003 49.9381 147.513 53.6084C146.045 66.0876 135.768 75.8753 123.534 76.854C121.371 77.0142 119.254 76.9122 117.213 76.577C104.423 74.7158 94.599 63.7035 94.599 50.3969C94.599 48.9033 94.7228 47.4385 94.9606 46.0124C96.5423 35.755 104.203 27.345 113.991 24.735C116.193 24.0009 118.64 23.7562 120.842 23.7562C123.534 23.7562 125.981 24.2456 128.427 24.9797L129.162 21.3093L130.882 25.8242C132.832 26.6048 134.668 27.611 136.357 28.8104C135.872 27.9296 135.186 26.8217 134.3 25.7137C134.3 25.7137 137.807 28.2466 140.649 32.6169C141.06 33.0695 141.455 33.5365 141.834 34.017C141.38 34.2746 140.868 34.6214 140.576 35.0318C142.065 35.4595 144.162 37.4592 145.442 40.1169C145.487 40.2236 145.531 40.3307 145.575 40.4381C146.459 40.5966 149.375 41.2383 151.428 43.0868H151.673C152.652 40.3952 155.343 38.927 155.343 38.927C155.343 38.927 155.588 35.2567 157.301 33.2991H156.077ZM144.822 24.9797C142.375 23.2668 138.215 22.5328 138.215 22.5328L139.683 21.0646L139.928 19.8412C141.885 20.5752 143.109 22.0434 143.843 23.0221C144.088 23.2668 144.332 23.5115 144.332 23.7562C144.822 24.4903 144.822 24.9797 144.822 24.9797Z" fill="white"/>
<circle cx="121.362" cy="50.3969" r="19.3399" fill="#F0CE46" stroke="#205AAF" stroke-width="2"/>
<path d="M121.821 37.7036L132.946 44.1267V56.9729L121.821 63.396L110.696 56.9729V44.1267L121.821 37.7036Z" fill="#205AAF"/>
<path d="M126 33C126 33 126.482 37.6454 128.418 39.5817C130.355 41.518 135 42 135 42C135 42 130.355 42.482 128.418 44.4183C126.482 46.3545 126 51 126 51C126 51 125.518 46.3545 123.582 44.4183C121.645 42.482 117 42 117 42C117 42 121.645 41.518 123.582 39.5817C125.518 37.6454 126 33 126 33Z" fill="white"/>
</svg>